<?xml version="1.0" encoding="UTF-8" standalone="no"?>
<!-- Created with Inkscape (http://www.inkscape.org/) -->

<svg
   xmlns:dc="http://purl.org/dc/elements/1.1/"
   xmlns:cc="http://creativecommons.org/ns#"
   xmlns:rdf="http://www.w3.org/1999/02/22-rdf-syntax-ns#"
   xmlns:svg="http://www.w3.org/2000/svg"
   xmlns="http://www.w3.org/2000/svg"
   xmlns:sodipodi="http://sodipodi.sourceforge.net/DTD/sodipodi-0.dtd"
   xmlns:inkscape="http://www.inkscape.org/namespaces/inkscape"
   width="121.68583mm"
   height="121.68635mm"
   viewBox="0 0 121.68583 121.68635"
   version="1.1"
   id="svg8"
   inkscape:export-filename="/home/enaut/favicon.ico.png"
   inkscape:export-xdpi="6.6794672"
   inkscape:export-ydpi="6.6794672"
   inkscape:version="0.92.3 (2405546, 2018-03-11)"
   sodipodi:docname="favicon.svg">
  <defs
     id="defs2" />
  <sodipodi:namedview
     id="base"
     pagecolor="#ffffff"
     bordercolor="#666666"
     borderopacity="1.0"
     inkscape:pageopacity="0.0"
     inkscape:pageshadow="2"
     inkscape:zoom="0.7"
     inkscape:cx="-157.35072"
     inkscape:cy="316.43604"
     inkscape:document-units="mm"
     inkscape:current-layer="layer1"
     showgrid="false"
     fit-margin-top="0"
     fit-margin-left="0"
     fit-margin-right="0"
     fit-margin-bottom="0"
     inkscape:window-width="1920"
     inkscape:window-height="1016"
     inkscape:window-x="0"
     inkscape:window-y="27"
     inkscape:window-maximized="1" />
  <metadata
     id="metadata5">
    <rdf:RDF>
      <cc:Work
         rdf:about="">
        <dc:format>image/svg+xml</dc:format>
        <dc:type
           rdf:resource="http://purl.org/dc/dcmitype/StillImage" />
        <dc:title></dc:title>
      </cc:Work>
    </rdf:RDF>
  </metadata>
  <g
     inkscape:label="Ebene 1"
     inkscape:groupmode="layer"
     id="layer1"
     transform="translate(-6.4369563,-62.287809)">
    <path
       style="fill:#800000;fill-opacity:1;stroke-width:0.99999994"
       d="m 185.71484,259.66211 c -32.32482,32.32482 32.32482,104.81776 0,137.14258 -32.32481,32.32481 -104.817759,-32.32481 -137.142574,0 -32.324816,32.32482 -32.324816,104.81776 0,137.14258 32.324815,32.32481 104.817764,-32.32481 137.142574,0 32.32528,32.32528 -32.32528,104.81925 0,137.14453 32.32482,32.32482 104.81776,32.32482 137.14258,0 32.32528,-32.32528 -32.32528,-104.81925 0,-137.14453 32.32482,-32.32482 104.81776,32.32482 137.14258,0 32.32482,-32.32482 32.32482,-104.81776 0,-137.14258 -32.32482,-32.32482 -104.81776,32.32482 -137.14258,0 -32.32482,-32.32482 32.32482,-104.81776 0,-137.14258 -32.32482,-32.32482 -104.81776,-32.32482 -137.14258,0 z"
       transform="scale(0.26458333)"
       id="rect827"
       inkscape:connector-curvature="0"
       sodipodi:nodetypes="aaaaaaaaaaaaa" />
  </g>
</svg>
